<svg width="100" height="100" fill="none" xmlns="http://www.w3.org/2000/svg"><path d="M43.772 59.367L60.036 50l-16.264-9.368v18.735z" fill="#B3C54A"/><path d="M50 0C22.39 0 0 22.39 0 50s22.39 50 50 50 50-22.39 50-50S77.61 0 50 0zm31.242 50.051s0 10.14-1.286 15.03a7.829 7.829 0 01-5.508 5.507C69.558 71.875 50 71.875 50 71.875s-19.508 0-24.448-1.338a7.83 7.83 0 01-5.508-5.508C18.757 60.191 18.757 50 18.757 50s0-10.14 1.287-15.03c.72-2.675 2.882-4.838 5.508-5.558C30.442 28.125 50 28.125 50 28.125s19.559 0 24.448 1.338a7.83 7.83 0 015.508 5.508c1.338 4.89 1.286 15.08 1.286 15.08z" fill="#CFC32C"/></svg>